<svg height="512" viewBox="0 0 52 60" width="512" xmlns="http://www.w3.org/2000/svg"><g id="Page-1" fill="none" fill-rule="evenodd"><g id="055---Sneeze-Into-Arm" fill-rule="nonzero"><g id="Icons" transform="translate(1 1)"><path id="Shape" d="m37 24c0 2.209139-1.790861 4-4 4-.3901011 1.0549126-.9001119 2.0615128-1.52 3h-14.6c-.5329123-.0002413-1.0438267-.2125227-1.42-.59l-1.82-1.82c-.3761733-.3774773-.8870877-.5897587-1.42-.59h-3.22c-2.209139 0-4-1.790861-4-4s1.790861-4 4-4v-5.68c1.9161294 1.2088889 4.1914742 1.7176617 6.44 1.44 2.3080268-.2168789 4.5647453-.8114634 6.68-1.76 5.88-3 10.34.74 11.63 6.07 1.8862336.3600545 3.250452 2.0097093 3.25 3.93z" fill="#ffdfb1"/><path id="Shape" d="m33.75 20.07c-1.1-4.538-4.5-7.906-9.112-6.962 3.064.687 5.269 3.477 6.112 6.962 2.0290004.3846497 3.4316433 2.2506685 3.2371952 4.3066326-.194448 2.055964-1.922058 3.6259312-3.9871952 3.6233674-.3901011 1.0549126-.9001119 2.0615128-1.52 3h3c.6198881-.9384872 1.1298989-1.9450874 1.52-3 2.0651372.0025638 3.7927472-1.5674034 3.9871952-3.6233674.1944481-2.0559641-1.2081948-3.9219829-3.2371952-4.3066326z" fill="#dec39b"/><path id="Shape" d="m28 45c.0000001 2.5008592-1.3341924 4.8117484-3.5 6.0621779-2.1658075 1.2504296-4.8341925 1.2504296-7 0-2.1658076-1.2504295-3.5000001-3.5613187-3.5-6.0621779.5556115-.3956234 1.0595272-.8592258 1.5-1.38.9167282-.9885153 1.4488914-2.2728026 1.5-3.62 0-.36-.02-.69-.05-1h8.1c-.03.31-.05.64-.05 1 0 3 3 5 3 5z" fill="#ffdfb1"/><path id="Shape" d="m25 40c0-.36.02-.69.05-1h-3c-.03.31-.05.64-.05 1 0 3 3 5 3 5-.0006562 3.2874693-2.2888951 6.1315423-5.5 6.836.4926918.1081794.9955723.163161 1.5.164 3.8659932 0 7-3.1340068 7-7 0 0-3-2-3-5z" fill="#dec39b"/><path id="Shape" d="m33.75 20.07c-1.29-5.33-5.75-9.07-11.63-6.07-2.1152547.9485366-4.3719732 1.5431211-6.68 1.76-2.2485258.2776617-4.5238706-.2311111-6.44-1.44-2.25498443-1.3885861-3.85545874-3.6270874-4.44-6.21-.55607223-2.64143974-.73451757-5.34842187-.53-8.04 3.88 8 20.67 1.33 27.14 5.33s2.58 14.67 2.58 14.67z" fill="#90562d"/><path id="Shape" d="m31.17 5.4c-2.155-1.333-5.458-1.479-9.045-1.381 2.0988353-.05296555 4.177378.42188432 6.045 1.381 3.779 2.34 4.018 6.961 3.567 10.4.9678571 1.2634764 1.654216 2.7193891 2.013 4.27 0 0 3.88-10.67-2.58-14.67z" fill="#6d4122"/><path id="Shape" d="m48.62 44.99c-2.06 4.03-8.38 10.93-14.62 13.01h-32c-1.10320187-.0032948-1.9967052-.8967981-2-2-.00159287-2.9178694 1.15682085-5.716688 3.22006641-7.7799336 2.06324555-2.0632455 4.86206418-3.2216593 7.77993359-3.2200664h3c-.0000001 2.5008592 1.3341924 4.8117484 3.4999999 6.062178 2.1658076 1.2504296 4.8341926 1.2504296 7.0000002 0 2.1658075-1.2504296 3.5-3.5613188 3.4999999-6.062178l9.08-3.5c.5036776-.177045.8378573-.6561701.83-1.19.0075709-.3462248-.125251-.6807852-.3682366-.927538-.2429855-.2467528-.5754631-.3847058-.9217634-.382462h-14.62v-8h17s5.61 0 8.82 4.01c2.1968773 2.8834028 2.5095072 6.7834602.8 9.98z" fill="#f34335"/><path id="Shape" d="m47.82 35.01c-3.21-4.01-8.82-4.01-8.82-4.01h-3s5.61 0 8.82 4.01c2.1968773 2.8834028 2.5095072 6.7834602.8 9.98-2.06 4.03-8.38 10.93-14.62 13.01h3c6.24-2.08 12.56-8.98 14.62-13.01 1.7095072-3.1965398 1.3968773-7.0965972-.8-9.98z" fill="#c71e1e"/><path id="Rectangle-path" d="m18 31h4v8h-4z" fill="#c71e1e"/><path id="Shape" d="m18 31v8h-2.59c-.6066233.0013943-1.1800676.2770886-1.56.75l-.9 1.12c-.5687715.711414-1.4291754 1.1269082-2.34 1.13h-4.56c-1.10320187-.0032948-1.9967052-.8967981-2-2v-2h-.57c-.99456669.000587-1.92450517-.4927444-2.48172986-1.316555-.55722468-.8238106-.66899063-1.870553-.29827014-2.793445l1.6-4c.45035174-1.1413245 1.55303736-1.8909921 2.78-1.89h7.14c.5329123.0002413 1.0438267.2125227 1.42.59 2.55 2.55 2.06 2.41 4.36 2.41z" fill="#ffdfb1"/></g><g id="Icons_copy" fill="#000"><path id="Shape" d="m40 31h-5.79c.209-.41.375-.771.492-1.049 2.2121391-.3112175 3.9480562-2.0544962 4.2499095-4.2679325.3018534-2.2134363-.9038829-4.3578777-2.9519095-5.2500675.831-2.87 2.621-11.208-3.31-14.88-2.976-1.842-7.582-1.638-12.461-1.42-6.069.268-12.341.549-14.3-3.5-.19557361-.40303909-.63532996-.62683256-1.07627277-.54771882-.44094281.07911375-.77546813.44182848-.81872723.88771882-.21519034 2.79636478-.02964804 5.60913216.551 8.353.59616066 2.6646272 2.17200877 5.0078758 4.415 6.565v4.209c-2.32662911.478082-3.99738774 2.5247614-4 4.9.00453723 1.0858173.36611991 2.1399943 1.029 3-1.61851152.0126773-3.06666015 1.008329-3.658 2.515l-1.6 4c-.46487287 1.1598838-.35966352 2.470546.28427681 3.5414233.64394032 1.0708773 1.75227168 1.7783418 2.99472319 1.9115767v1.032c0 1.6568542 1.34314575 3 3 3h4.56c.2011706.0022237.4020908-.0148545.6-.051.9928479-.1474233 1.8931334-.6650875 2.52-1.449l.9-1.122c.1890462-.2379875.4760663-.3770819.78-.378h.59c-.0572506 1.1082481-.503812 2.1607308-1.261 2.972-.3222942.3763894-.6803003.7206646-1.069 1.028h-2.67c-6.62444695.0071648-11.99283515 5.375553-12 12 0 1.6568542 1.34314575 3 3 3h32c.1074429-.0002448.2141442-.0178032.316-.052 6.527-2.175 13.019-9.237 15.2-13.5 1.8891744-3.5488483 1.5310779-7.8741545-.916-11.064-3.467-4.334-9.351-4.384-9.6-4.384zm-33.465-22.114c-.3558694-1.6474238-.54912978-3.32580818-.577-5.011 3.265 2.748 8.887 2.5 14.362 2.256 4.358-.2 8.867-.4 11.319 1.123 3.712 2.3 3.52 7.291 2.927 10.513-.9089943-1.8026021-2.3845062-3.2570352-4.2-4.14-1.0014397-.4628512-2.0917731-.7017349-3.195-.7-1.5750531.0293409-3.1205571.4327692-4.509 1.177-2.009435.8972995-4.153295 1.4564939-6.345 1.655-4.5442967.5708162-8.77857931-2.404263-9.782-6.873zm3.465 13.114c.5522847 0 1-.4477153 1-1v-4.021c1.7560476.7390782 3.6753392 1.004248 5.566.769 2.4243069-.219487 4.7940461-.8473377 7.009-1.857 1.8064707-1.0759374 4.0132506-1.2414459 5.96-.447 2.230568 1.2089306 3.7914465 3.365393 4.243 5.862.0951371.3789125.4042121.6664424.789.734v.013c1.5213472.2898098 2.5720562 1.690027 2.4250658 3.2317406-.1469903 1.5417136-1.4433636 2.7181549-2.9920658 2.7152594-.4297093.000039-.8113524.2745966-.948.682-.3024465.8065179-.6804616 1.5826373-1.129 2.318h-14.039c-.2696744.0007694-.5282283-.1074121-.717-.3l-1.823-1.82c-.562043-.5652532-1.3268808-.8821352-2.124-.88h-3.22c-1.65685421 0-2.99999991-1.3431458-2.99999991-3s1.3431457-3 2.99999991-3zm10 17v-6h2v6zm-5.93 1.123-.9 1.122c-.3248586.4038841-.7930525.6668177-1.307.734-.0833453.0159862-.1681596.0230261-.253.021h-4.56c-.55228475 0-1-.4477153-1-1v-1h3c.55228475 0 1-.4477153 1-1s-.44771525-1-1-1h-4.57c-.66100123-.002527-1.27806109-.331487-1.64859044-.8788781s-.44666462-1.2425033-.20340956-1.8571219l1.6-4.007c.29810179-.7615812 1.03416549-1.2611666 1.852-1.257h7.14c.2661383.0007285.5212553.1063685.71.294l1.823 1.823c.5616835.5655421 1.3259266.8834068 2.123.883h.124v6h-1.59c-.9105785-.0027043-1.7724554.410923-2.34 1.123zm3.187 5.15c1.0779531-1.167108 1.6970818-2.6849145 1.743-4.273h6c0 2.744 2.038 4.717 2.981 5.483-.2487908 3.1187797-2.8523128 5.5228847-5.981 5.5228847s-5.7322092-2.404105-5.981-5.5228847c.4481337-.3653735.862472-.7703406 1.238-1.21zm11.907-.408c-1.2311777-.9280733-2.0162807-2.3303021-2.164-3.865h10.616c.1353583.0118818.2458294.1132573.2692693.2470991.0234399.1338417-.046005.2667262-.1692693.3239009zm19.568.675c-1.954 3.823-8 10.418-13.9 12.46h-31.832c-.55228475 0-1-.4477153-1-1 .00606237-5.5203344 4.47966557-9.9939376 10-10h2.069c.5034864 4.0616816 3.9930547 7.0872523 8.0850952 7.010044 4.0920404-.0772083 7.4649932-3.2322605 7.8149048-7.310044l8.473-3.262c1.0217376-.4050145 1.6141466-1.4763177 1.4139804-2.5570203-.2001661-1.0807025-1.1369648-1.8687681-2.2359804-1.8809797h-13.62v-6h16c.052 0 5.165.042 8.038 3.634 1.9573227 2.5758874 2.2286662 6.0579994.694 8.906z"/></g></g></g></svg>