<svg height="512" viewBox="0 0 64 64" width="512" xmlns="http://www.w3.org/2000/svg"><g id="wash-wash_hands-clean-cleanser-basin" data-name="wash-wash hands-clean-cleanser-basin"><path d="m61 49v4a8 8 0 0 1 -8 8h-42a8 8 0 0 1 -8-8v-4z" fill="#bdfdff"/><path d="m43 43h16v6h-16z" fill="#898890"/><path d="m61 49v4a8 8 0 0 1 -8 8h-4a8 8 0 0 0 8-8v-4z" fill="#00e7f0"/><path d="m55 43h4v6h-4z" fill="#3e3d42"/><path d="m53 8v35h-4v-34a2.006 2.006 0 0 0 -2-2h-10a2.006 2.006 0 0 0 -2 2v6h-4v-7a5 5 0 0 1 5-5h12a5 5 0 0 1 5 5z" fill="#c6c5ca"/><path d="m53 8v35h-2v-35a5 5 0 0 0 -5-5h2a5 5 0 0 1 5 5z" fill="#898890"/><path d="m37 15v4h-4-4v-4h2 4z" fill="#898890"/><path d="m33 15h4v4h-4z" fill="#57565c"/><path d="m34.99 24.3a2 2 0 0 1 -1.88 2.7h-.22a2 2 0 0 1 -1.88-2.7l1.99-5.3z" fill="#2488ff"/><path d="m33.11 27h-.22a2.038 2.038 0 0 1 -.89-.2 2 2 0 0 0 .99-2.5l-.99-2.64 1-2.66 1.99 5.3a2 2 0 0 1 -1.88 2.7z" fill="#004fac"/><path d="m32.43 38.68-19.43 5.32h-10v-10l2.67-.53 7.33-1.47h5a3 3 0 0 1 1.34 5.68l10.52-2.5 1.54-.37a2.236 2.236 0 0 1 .51-.07 2 2 0 0 1 .52 3.94z" fill="#ffc477"/><path d="m32.43 38.68-19.43 5.32h-2l19.43-5.32a2.005 2.005 0 0 0 .38-3.73l.59-.14a2.236 2.236 0 0 1 .51-.07 2 2 0 0 1 .52 3.94z" fill="#ffa733"/><path d="m30 34a5.083 5.083 0 0 1 -.14 1.18l-10.52 2.5a3 3 0 0 0 -1.34-5.68h-5l-7.33 1.47a4.836 4.836 0 0 1 -.67-2.47 5 5 0 0 1 5-5 4 4 0 0 1 4-4 3.953 3.953 0 0 1 3.32 1.78 5 5 0 0 1 7.68 4.22 5.669 5.669 0 0 1 -.1 1.01.34.34 0 0 1 .1-.01 5 5 0 0 1 5 5z" fill="#bdfdff"/><path d="m30 34a5.083 5.083 0 0 1 -.14 1.18l-10.52 2.5a2.987 2.987 0 0 0 1.3-1.26l5.22-1.24a5.083 5.083 0 0 0 .14-1.18 5 5 0 0 0 -5-5 .34.34 0 0 0 -.1.01 5.669 5.669 0 0 0 .1-1.01 5 5 0 0 0 -3-4.58 4.941 4.941 0 0 1 2-.42 5 5 0 0 1 5 5 5.669 5.669 0 0 1 -.1 1.01.34.34 0 0 1 .1-.01 5 5 0 0 1 5 5z" fill="#00e7f0"/><path d="m19.83 8.17a4.008 4.008 0 1 1 -2.83-1.17 4.025 4.025 0 0 1 2.83 1.17z" fill="#d43237"/><path d="m21 11a3.995 3.995 0 0 1 -4 4 3.756 3.756 0 0 1 -1.5-.3 4.088 4.088 0 0 0 1.33-.87 4.008 4.008 0 0 0 0-5.66 4.088 4.088 0 0 0 -1.33-.87 3.756 3.756 0 0 1 1.5-.3 3.995 3.995 0 0 1 4 4z" fill="#ab2300"/><path d="m34.82 35.97a3.019 3.019 0 0 0 -2.91-2.23 2.967 2.967 0 0 0 -.74.1l-.18.04a6.017 6.017 0 0 0 -4.99-5.8v-.08a6 6 0 0 0 -6-6 5.9 5.9 0 0 0 -2.42.51 5 5 0 0 0 -8.49 2.56 5.95 5.95 0 0 0 -4.82 7.66l-1.47.29a1 1 0 0 0 -.8.98v10a1 1 0 0 0 1 1h10a.746.746 0 0 0 .26-.04l19.43-5.32a3.017 3.017 0 0 0 2.13-3.67zm-24.82-8.97a1 1 0 0 0 1-1 3.009 3.009 0 0 1 3-3 2.947 2.947 0 0 1 2.48 1.33 1 1 0 0 0 1.38.29 4.041 4.041 0 0 1 2.14-.62 4 4 0 0 1 4 4 5.256 5.256 0 0 1 -.08.83 1 1 0 0 0 1.12 1.17 4 4 0 0 1 3.96 4c0 .12-.01.24-.02.36l-7.12 1.69a4.089 4.089 0 0 0 .14-1.05 3.995 3.995 0 0 0 -4-4h-5a1.355 1.355 0 0 0 -.2.02l-6.56 1.31a3.919 3.919 0 0 1 -.24-1.33 4 4 0 0 1 4-4zm22.17 10.71-19.3 5.29h-8.87v-8.18l9.1-1.82h4.9a2 2 0 0 1 .9 3.78.01.01 0 0 0 -.01.01 2.005 2.005 0 0 1 -.89.21h-5v2h5a4.105 4.105 0 0 0 1.68-.37l11.95-2.85a1.159 1.159 0 0 1 .28-.04 1 1 0 0 1 .26 1.97z"/><path d="m61 48h-1v-5a1 1 0 0 0 -1-1h-5v-34a6 6 0 0 0 -6-6h-12a6 6 0 0 0 -6 6v6h-1a1 1 0 0 0 -1 1v4a1 1 0 0 0 1 1h2.56l-1.48 3.95a2.994 2.994 0 0 0 2.81 4.05h.22a2.994 2.994 0 0 0 2.81-4.05l-1.48-3.95h2.56a1 1 0 0 0 1-1v-4a1 1 0 0 0 -1-1h-1v-5a1 1 0 0 1 1-1h10a1 1 0 0 1 1 1v21h-4v-3h-2v8h2v-3h4v10h-5a1 1 0 0 0 -1 1v5h-39a1 1 0 0 0 -1 1v4a9.014 9.014 0 0 0 9 9h42a9.014 9.014 0 0 0 9-9v-4a1 1 0 0 0 -1-1zm-27.06-22.43a1 1 0 0 1 -.83.43h-.22a1 1 0 0 1 -.83-.43.974.974 0 0 1 -.11-.92l1.05-2.8 1.05 2.8a.974.974 0 0 1 -.11.92zm2.06-7.57h-6v-2h6zm11-12h-10a3.009 3.009 0 0 0 -3 3v5h-2v-6a4 4 0 0 1 4-4h12a4 4 0 0 1 4 4v34h-2v-33a3.009 3.009 0 0 0 -3-3zm-3 38h14v4h-14zm16 9a7.008 7.008 0 0 1 -7 7h-42a7.008 7.008 0 0 1 -7-7v-3h56z"/><path d="m25 9a1 1 0 0 0 -1 1h-2.1a5.038 5.038 0 0 0 -.73-1.75l1.49-1.49a1 1 0 1 0 1.41-1.42l-1.41-1.41a1.008 1.008 0 0 0 -1.42 0 1 1 0 0 0 0 1.41l-1.49 1.49a5.038 5.038 0 0 0 -1.75-.73v-2.1a1 1 0 0 0 0-2h-2a1 1 0 0 0 0 2v2.1a5.038 5.038 0 0 0 -1.75.73l-1.49-1.49a.976.976 0 0 0 .29-.7.966.966 0 0 0 -.29-.71 1.008 1.008 0 0 0 -1.42 0l-1.41 1.41a1 1 0 0 0 1.41 1.42l1.49 1.49a5.038 5.038 0 0 0 -.73 1.75h-2.1a1 1 0 0 0 -2 0v2a1 1 0 0 0 2 0h2.1a5.038 5.038 0 0 0 .73 1.75l-1.49 1.49a1 1 0 0 0 -1.41 0 1.008 1.008 0 0 0 0 1.42l1.41 1.41a1.014 1.014 0 0 0 1.42 0 1 1 0 0 0 0-1.41l1.49-1.49a5.038 5.038 0 0 0 1.75.73v2.1a1 1 0 0 0 0 2h2a1 1 0 0 0 0-2v-2.1a5.038 5.038 0 0 0 1.75-.73l1.49 1.49a.976.976 0 0 0 -.29.7.966.966 0 0 0 .29.71 1.014 1.014 0 0 0 1.42 0l1.41-1.41a1.008 1.008 0 0 0 0-1.42 1 1 0 0 0 -1.41 0l-1.49-1.49a5.038 5.038 0 0 0 .73-1.75h2.1a1 1 0 0 0 2 0v-2a1 1 0 0 0 -1-1zm-8 5a3 3 0 1 1 3-3 3.009 3.009 0 0 1 -3 3z"/><path d="m16 10h2v2h-2z"/></g></svg>