<svg id="Filled_cutting_stroke_ex" height="512" viewBox="0 0 512 512" width="512" xmlns="http://www.w3.org/2000/svg" data-name="Filled cutting stroke ex"><g><g><g><path d="m98 112h44a10 10 0 0 1 10 10v54a0 0 0 0 1 0 0h-64a0 0 0 0 1 0 0v-54a10 10 0 0 1 10-10z" fill="#fed672"/><path d="m192 280h-144v-74a30 30 0 0 1 30-30h84a30 30 0 0 1 30 30z" fill="#fa5d3f"/><path d="m162 168h-2v-46a18.0206 18.0206 0 0 0 -18-18h-44a18.0206 18.0206 0 0 0 -18 18v46h-2a38.0433 38.0433 0 0 0 -38 38v50h16v-50a22.0248 22.0248 0 0 1 22-22h84a22.0248 22.0248 0 0 1 22 22v42h16v-42a38.0433 38.0433 0 0 0 -38-38zm-66 0v-46a2.0023 2.0023 0 0 1 2-2h44a2.0023 2.0023 0 0 1 2 2v46z"/><path d="m160 280h-80v-54a10 10 0 0 1 10-10h60a10 10 0 0 1 10 10z" fill="#fffdfa"/><path d="m168 256h-16v-30a2.0023 2.0023 0 0 0 -2-2h-60a2.0023 2.0023 0 0 0 -2 2v30h-16v-30a18.0206 18.0206 0 0 1 18-18h60a18.0206 18.0206 0 0 1 18 18z"/></g><g><path d="m24 280h392a0 0 0 0 1 0 0v32a0 0 0 0 1 0 0h-372a20 20 0 0 1 -20-20v-12a0 0 0 0 1 0 0z" fill="#fed672"/><g><path d="m372 488h-296a20 20 0 0 1 -20-20v-156h336v156a20 20 0 0 1 -20 20z" fill="#fa5d3f"/><circle cx="72" cy="440" fill="#fed672" r="48"/><path d="m111.1542 480a55.9968 55.9968 0 0 0 -47.1542-95.43v-16.57h-16v21.4077a55.9975 55.9975 0 0 0 24 106.5923q2.0172 0 4-.1416v.1416h296v-16zm-79.1542-40a40 40 0 1 1 40 40 40.0455 40.0455 0 0 1 -40-40z"/><circle cx="72" cy="440" fill="#fa5d3f" r="16"/><path d="m72 464a24 24 0 1 1 24-24 24.0272 24.0272 0 0 1 -24 24zm0-32a8 8 0 1 0 8 8 8.0092 8.0092 0 0 0 -8-8z"/></g><path d="m280 144-56 80v56h128v-56l-24-80z" fill="#8d5aed"/></g><g><path d="m280 112h48v32h-48z" fill="#fed672"/><path d="m232 88-32 72 24 8 56-64z" fill="#fed672"/><path d="m224 88-24-8v-24h40z" fill="#fa5d3f"/><path d="m216 96 16-40h64l32 56h-48z" fill="#c85aed"/><path d="m359.6626 221.7012-23.6626-78.8753v-30.8259-.0234q0-.0788-.002-.1573l-.0008-.0378c-.0015-.0547-.0037-.1094-.0062-.1641l-.0038-.0715-.0059-.0933c-.0043-.0625-.0093-.1245-.0149-.1865l-.0015-.0173a7.9523 7.9523 0 0 0 -1.08-3.3245l-31.939-55.8931a7.9993 7.9993 0 0 0 -6.9459-4.0312h-96a8 8 0 0 0 -8 8v24a8.0006 8.0006 0 0 0 5.47 7.59l11.7158 3.9051-.6137 1.5344a7.9992 7.9992 0 0 0 5.4873 10.7314l1.963.4908-23.3331 52.5a8 8 0 0 0 4.7807 10.8383l24 8a8.0008 8.0008 0 0 0 8.55-2.3222l41.98-47.9765v16.187l-54.5537 77.9338a7.9994 7.9994 0 0 0 -1.4463 4.5879v24h16v-21.4785l52.165-74.5215h37.8829l21.9521 73.1738v30.8262h16v-32a8.0078 8.0078 0 0 0 -.3374-2.2988zm-122.2466-157.7012h53.9414l22.857 40h-33.23l-54.1529-13.5381zm-29.416 10.2334v-10.2334h12.184l-5.0452 12.6128zm13.4829 84.4951-10.5937-3.5312 20.8917-47.0064 27.8338 6.9585zm66.5171-22.7285v-16h32v16z"/></g><g><path d="m144 272h136v144h-136z" fill="#c85aed"/><path d="m144 344h136v32h-136z" fill="#fdf8ff"/></g><g><path d="m394 24h12a10 10 0 0 1 10 10v310a0 0 0 0 1 0 0h-32a0 0 0 0 1 0 0v-310a10 10 0 0 1 10-10z" fill="#c85aed"/><path d="m434.6482 344h-69.2964a10 10 0 0 0 -8.3205 4.453l-45.0313 67.547v72h176v-72l-45.0313-67.547a10 10 0 0 0 -8.3205-4.453z" fill="#fed672"/><path d="m312 424h176v64h-176z" fill="#c85aed"/><path d="m368 376h16v16h-16z"/><path d="m416 376h16v16h-16z"/><path d="m494.6562 411.5625-45.0312-67.5469a17.9638 17.9638 0 0 0 -14.9771-8.0156h-10.6479v-248h-16v248h-16v-302a2.0023 2.0023 0 0 1 2-2h12a2.0023 2.0023 0 0 1 2 2v38h16v-38a18.0206 18.0206 0 0 0 -18-18h-12a18.0206 18.0206 0 0 0 -18 18v238h-88a8 8 0 0 0 -8-8h-136a8 8 0 0 0 -8 8h-112a8 8 0 0 0 -8 8v12a28.0314 28.0314 0 0 0 28 28h4v32h16v-32h72v96a8 8 0 0 0 8 8h96v-16h-88v-24h120v24h-16v16h24a8 8 0 0 0 8-8v-96h88v16h-10.6479a17.9638 17.9638 0 0 0 -14.9771 8.0156l-45.0312 67.5469a7.9982 7.9982 0 0 0 -1.3438 4.4375v72a8 8 0 0 0 8 8h176a8 8 0 0 0 8-8v-72a7.9982 7.9982 0 0 0 -1.3438-4.4375zm-358.6562-107.5625h-92a12.0134 12.0134 0 0 1 -12-12v-4h104zm136 64h-120v-16h120zm0-32h-120v-56h120zm16-32v-16h88v16zm75.6875 48.8906a1.9971 1.9971 0 0 1 1.6646-.8906h69.2958a1.9971 1.9971 0 0 1 1.6646.8906l42.0729 63.1094h-156.7708zm116.3125 127.1094h-32v-32h-16v32h-24v-32h-16v32h-24v-32h-16v32h-32v-48h160z"/></g></g><g><path d="m456 128h16v16h-16z"/><path d="m456 160h16v16h-16z"/><path d="m440 144h16v16h-16z"/><path d="m472 144h16v16h-16z"/></g><g><path d="m56 40h16v16h-16z"/><path d="m56 72h16v16h-16z"/><path d="m40 56h16v16h-16z"/><path d="m72 56h16v16h-16z"/></g></g></svg>