<?xml version="1.0" encoding="iso-8859-1"?>
<!-- Generator: Adobe Illustrator 21.0.0, SVG Export Plug-In . SVG Version: 6.00 Build 0)  -->
<svg version="1.1" id="Capa_1" xmlns="http://www.w3.org/2000/svg" xmlns:xlink="http://www.w3.org/1999/xlink" x="0px" y="0px"
	 viewBox="0 0 512 512" style="enable-background:new 0 0 512 512;" xml:space="preserve">
<ellipse style="fill:#F1E075;" cx="256.001" cy="256" rx="242.32" ry="248.5"/>
<g>
	<path style="fill:#F8CD45;" d="M256.001,7.5c-3.856,0-7.688,0.103-11.5,0.286C372.992,13.943,475.325,122.711,475.325,256
		S372.992,498.057,244.501,504.214c3.812,0.183,7.644,0.286,11.5,0.286c133.832,0,242.324-111.257,242.324-248.5
		S389.833,7.5,256.001,7.5z"/>
	<ellipse style="fill:#F8CD45;" cx="256.001" cy="256" rx="168.85" ry="173.16"/>
</g>
<path style="fill:#F8B53C;" d="M256.001,82.844c-3.866,0-7.699,0.146-11.5,0.408c87.89,6.064,157.352,81.082,157.352,172.748
	c0,91.667-69.463,166.684-157.352,172.748c3.801,0.262,7.634,0.408,11.5,0.408c93.254,0,168.852-77.524,168.852-173.156
	C424.853,160.369,349.256,82.844,256.001,82.844z"/>
<ellipse transform="matrix(0.3587 -0.9334 0.9334 0.3587 36.4284 254.2669)" style="fill:#A7E2EE;" cx="203.269" cy="100.621" rx="72.889" ry="52.714"/>
<path style="fill:#6CCEE3;" d="M229.423,32.592c-8.274-3.18-17.157-3.338-25.918-0.979c0.979,0.29,1.954,0.609,2.918,0.979
	c27.177,10.445,37.501,49.375,23.058,86.953c-10.045,26.137-29.426,44.72-49.44,50.108c26.63,7.875,58.51-13.863,72.44-50.108
	C266.924,81.967,256.6,43.037,229.423,32.592z"/>
<path style="fill:#F195D6;" d="M140.775,220.442L80.384,377.578c-3.147,8.188,0.978,17.461,9.165,20.608l0,0
	c8.188,3.147,17.461-0.978,20.608-9.165l60.391-157.136L140.775,220.442z"/>
<path style="fill:#E480BE;" d="M140.775,220.442l12.773,11.443L93.157,389.02c-1.282,3.335-3.589,5.98-6.416,7.75
	c0.872,0.553,1.809,1.032,2.808,1.416l0,0c8.188,3.147,17.461-0.978,20.608-9.165l60.391-157.135L140.775,220.442z"/>
<path style="fill:#F195D6;" d="M369.433,337.118l81.015,147.564c4.221,7.689,13.966,10.526,21.655,6.305l0,0
	c7.689-4.221,10.526-13.966,6.305-21.655l-81.015-147.564L369.433,337.118z"/>
<path style="fill:#E480BE;" d="M478.408,469.332l-81.015-147.564l-15.368,8.437l76.383,139.127
	c3.762,6.853,1.906,15.328-3.982,20.081c4.888,3.919,11.868,4.764,17.678,1.574l0,0
	C479.792,486.765,482.629,477.021,478.408,469.332z"/>
<path style="fill:#A7E2EE;" d="M313.344,145.617c-5.933,3.257-8.122,10.777-4.865,16.71l20.969,38.193l-2.542,1.396l-20.969-38.193
	c-3.257-5.933-10.777-8.122-16.71-4.865c-5.933,3.257-8.122,10.777-4.865,16.71l20.969,38.193l-1.66,0.911l-20.969-38.193
	c-3.257-5.933-10.777-8.122-16.71-4.865l0,0c-5.933,3.257-8.122,10.777-4.865,16.71l20.969,38.193l-0.067,0.037l11.082,20.184
	c8.523,15.523,28.197,21.251,43.72,12.729l12.544-6.887c15.523-8.523,21.251-28.197,12.729-43.72l-3.197-5.823l-7.885-14.361
	l-20.969-38.193C326.797,144.549,319.278,142.359,313.344,145.617z"/>
<path style="fill:#6CCEE3;" d="M362.105,208.859l-3.197-5.823l-7.885-14.361l-20.969-38.193c-3.257-5.933-10.777-8.122-16.71-4.865
	c-2.612,1.434-4.496,3.695-5.512,6.282l20.19,36.776l7.885,14.361l3.197,5.823c8.523,15.524,2.795,35.198-12.729,43.72
	l-12.544,6.887c-1.289,0.707-2.608,1.307-3.945,1.821c8.529,3.239,18.369,2.887,26.945-1.821l12.544-6.887
	C364.899,244.057,370.627,224.383,362.105,208.859z"/>
<g>
	<path style="fill:#18191B;" d="M73.864,392.82c2.55,5.734,7.165,10.126,12.995,12.367c2.717,1.044,5.551,1.564,8.383,1.564
		c3.245,0,6.488-0.683,9.55-2.045c5.734-2.55,10.126-7.166,12.367-12.996l6.345-16.51c16.256,18.972,36.21,34.302,58.746,44.945
		c1.035,0.489,2.125,0.72,3.198,0.72c2.811,0,5.506-1.588,6.787-4.299c1.769-3.746,0.167-8.216-3.579-9.984
		c-23.077-10.898-43.212-27.175-58.956-47.502l47.85-124.505c0.713-1.856,0.66-3.921-0.148-5.738
		c-0.809-1.817-2.306-3.239-4.163-3.953l-8.951-3.44l16.82-43.766c3.357,0.743,6.783,1.121,10.251,1.121
		c10.684,0,21.75-3.51,32.315-10.398c15.545-10.134,28.262-26.529,35.809-46.165l0,0c4-10.409,6.294-21.112,6.874-31.547
		c18.956,1.226,37.316,5.802,54.667,13.656c1.003,0.454,2.054,0.669,3.088,0.669c2.855,0,5.583-1.639,6.837-4.409
		c1.708-3.774,0.034-8.218-3.74-9.926c-19.425-8.792-40.002-13.832-61.247-15.038c-0.446-3.987-1.152-7.892-2.154-11.669
		c-4.989-18.812-16.245-32.442-31.695-38.38c-15.451-5.938-32.938-3.355-49.241,7.274C167.328,43,154.61,59.395,147.064,79.03
		c-5.198,13.526-7.543,27.552-6.946,40.835c-0.187,0.139-0.37,0.286-0.547,0.445C101.49,154.626,79.649,204.083,79.649,256
		c0,23.685,4.484,46.878,13.115,68.46l-19.38,50.426C71.143,380.717,71.314,387.085,73.864,392.82z M161.066,84.411
		c6.423-16.713,17.077-30.556,29.999-38.981c8.061-5.255,16.342-7.938,24.166-7.938c3.982,0,7.847,0.695,11.502,2.1
		c23.273,8.944,31.684,43.604,18.748,77.262l0,0c-12.936,33.658-42.394,53.765-65.667,44.819
		c-10.837-4.165-18.855-14.188-22.577-28.223C153.282,118.54,154.643,101.125,161.066,84.411z M94.649,256
		c0-44.531,17.483-87.07,48.253-118.138c4.223,15.44,12.705,27.32,24.273,34.253l-16.89,43.948l-6.82-2.621
		c-3.867-1.485-8.206,0.444-9.691,4.311l-32.631,84.905C96.854,287.619,94.649,271.932,94.649,256z M87.385,380.268l57.7-150.134
		l15.772,6.061L103.156,386.33c-0.803,2.09-2.387,3.749-4.46,4.671c-2.073,0.921-4.367,0.987-6.456,0.184
		c-2.09-0.803-3.749-2.387-4.67-4.46C86.647,384.651,86.582,382.358,87.385,380.268z"/>
	<path style="fill:#18191B;" d="M454.905,410.939c33.025-44.329,50.92-98.223,50.92-154.938c0-68.345-25.963-132.608-73.105-180.952
		C385.527,26.653,322.767,0,256.001,0c-51.945,0-101.747,16.182-144.022,46.797C70.675,76.708,39.527,118.073,21.901,166.42
		c-1.419,3.892,0.586,8.196,4.478,9.615c3.893,1.419,8.196-0.586,9.615-4.478c16.596-45.523,45.914-84.464,84.783-112.612
		C160.476,30.196,207.236,15,256.001,15c62.688,0,121.634,25.045,165.979,70.52c44.395,45.527,68.844,106.071,68.844,170.48
		c0,51.087-15.389,99.736-43.904,140.395l-33.238-60.541c0.644-0.622,1.199-1.356,1.599-2.217
		c11.328-24.348,17.072-50.469,17.072-77.637c0-60.322-29.226-116.433-78.18-150.097c-3.412-2.347-8.083-1.483-10.429,1.93
		c-2.347,3.413-1.483,8.083,1.93,10.429c44.883,30.865,71.679,82.355,71.679,137.738c0,22.223-4.189,43.671-12.441,63.88
		l-0.946-1.722c-1.993-3.631-6.552-4.959-10.184-2.965l-7.24,3.975l-33.096-60.283c9.023-5.11,15.591-13.412,18.512-23.444
		c2.971-10.206,1.807-20.928-3.279-30.191l-32.051-58.377c-5.255-9.573-17.319-13.085-26.894-7.83l0,0
		c-4.68,2.569-7.911,6.765-9.378,11.502c-4.784-1.304-10.06-0.831-14.739,1.738c-4.463,2.451-7.608,6.381-9.163,10.848
		c-4.604-1.085-9.609-0.542-14.072,1.908c-4.625,2.54-7.989,6.741-9.471,11.83c-1.481,5.088-0.898,10.438,1.641,15.064
		l20.455,37.258c0.125,0.333,0.274,0.657,0.447,0.972l11.082,20.184c7.216,13.144,20.834,20.587,34.866,20.587
		c6.404,0,12.894-1.556,18.899-4.823l33.093,60.276l-7.571,4.156c-1.744,0.957-3.036,2.568-3.592,4.478s-0.331,3.962,0.627,5.706
		l13.837,25.203c-30.657,35.458-74.433,55.726-120.695,55.726c-11.809,0-23.587-1.315-35.008-3.908
		c-4.036-0.916-8.057,1.614-8.975,5.653c-0.917,4.039,1.614,8.057,5.653,8.975c12.508,2.84,25.404,4.28,38.329,4.28
		c48.808,0,95.068-20.578,128.355-56.772l29.791,54.263C370.808,474.757,315.069,497,256.001,497
		c-62.688,0-121.634-25.044-165.979-70.52C45.627,380.953,21.177,320.409,21.177,256c0-17.151,1.763-34.269,5.241-50.879
		c0.849-4.054-1.75-8.029-5.804-8.878c-4.053-0.847-8.029,1.75-8.878,5.804c-3.689,17.619-5.56,35.771-5.56,53.953
		c0,68.345,25.963,132.608,73.105,180.952C126.475,485.348,189.235,512,256.001,512c61.646,0,119.862-22.742,165.576-64.321
		l22.297,40.612c3.005,5.475,7.979,9.456,14.005,11.21c2.184,0.636,4.407,0.951,6.616,0.951c3.886,0,7.727-0.975,11.217-2.892
		c5.475-3.005,9.456-7.979,11.21-14.005c1.754-6.025,1.065-12.358-1.941-17.833L454.905,410.939z M299.686,243.128l-10.568-19.249
		c-0.125-0.332-0.274-0.657-0.447-0.972l-20.969-38.193c-1.254-2.284-0.384-5.272,1.9-6.526c2.284-1.253,5.272-0.383,6.526,1.9
		l20.969,38.193c1.994,3.63,6.552,4.96,10.184,2.965l1.66-0.911c1.744-0.957,3.036-2.568,3.592-4.478s0.331-3.962-0.627-5.706
		l-20.969-38.193c-1.253-2.284-0.383-5.272,1.9-6.526c2.282-1.253,5.272-0.384,6.526,1.9l20.969,38.193
		c1.993,3.631,6.552,4.959,10.184,2.965l2.542-1.396c1.744-0.957,3.036-2.568,3.592-4.478s0.331-3.962-0.627-5.706l-20.969-38.193
		c-1.253-2.284-0.383-5.272,1.9-6.526c1.114-0.611,2.411-0.749,3.652-0.387c1.242,0.361,2.263,1.174,2.874,2.287l32.05,58.377
		c3.158,5.752,3.877,12.421,2.026,18.78s-6.038,11.599-11.79,14.757l-12.544,6.887C321.284,259.447,306.24,255.066,299.686,243.128z
		 M468.494,484.413c-4.084,2.241-9.229,0.744-11.471-3.34l-77.406-140.99l14.811-8.131l77.406,140.99
		C474.075,477.025,472.577,482.171,468.494,484.413z"/>
</g>
<g>
</g>
<g>
</g>
<g>
</g>
<g>
</g>
<g>
</g>
<g>
</g>
<g>
</g>
<g>
</g>
<g>
</g>
<g>
</g>
<g>
</g>
<g>
</g>
<g>
</g>
<g>
</g>
<g>
</g>
</svg>
