<svg id="Capa_1" enable-background="new 0 0 512.002 512.002" height="512" viewBox="0 0 512.002 512.002" width="512" xmlns="http://www.w3.org/2000/svg"><g><path d="m218.501 262.5-60-60 30 132.429v87.571c0 8.284 6.716 15 15 15 7.636 0 13.925-5.71 14.865-13.09l14.629-114.567c.322-2.516.506-5.074.506-7.678 0-15.211-5.671-29.09-15-39.665z" fill="#a8e5ff"/><path d="m188.501 202.5-60 60c-9.329 10.575-15 24.454-15 39.665 0 2.603.184 5.162.506 7.678l14.629 114.568c.941 7.38 7.23 13.089 14.865 13.089 8.284 0 15-6.716 15-15v-87.571c4.693 1.659 9.739 2.571 15 2.571s10.307-.912 15-2.571z" fill="#dbf4ff"/><path d="m473.501 7.5v120l-96.67 60 66.67-180z" fill="#ff8646"/><path d="m443.501 97.498-30-29.999 30-30v-29.999h-180v120l179.999 60z" fill="#ffa754"/><path d="m473.501 127.5v165h-30l-75-82.5 74.999-82.5z" fill="#ffa754"/><path d="m293.501 127.5h-30v165h180v-30z" fill="#ffcb63"/><path d="m443.501 97.5h-30l-45-30 45-30h30z" fill="#7dd9ff"/><path d="m293.501 37.5h120v60h-120z" fill="#a8e5ff"/><path d="m443.501 262.5h-30l-45-67.5 45-67.5h30z" fill="#2dade3"/><path d="m293.501 127.5h120v135h-120z" fill="#49c9ff"/><path d="m188.501 262.5h30v-30l-60-30z" fill="#c27749"/><path d="m188.501 262.5h-60v-30l60-30z" fill="#e18f4e"/><path d="m198.501 172.5h-30l20 60h30v-40c0-11.046-8.954-20-20-20z" fill="#ffe2a8"/><path d="m168.501 172.5h-20c-11.046 0-20 8.954-20 20v40h60v-40c0-11.046-8.954-20-20-20z" fill="#fff0d3"/><path d="m200.501 61.5h-27v81c24.85 0 45-20.15 45-45 0-14.72-7.07-27.8-18-36z" fill="#c27749"/><path d="m186.701 76.14c1.15 6.36 1.8 13.63 1.8 21.36 0 24.85-6.72 45-15 45-24.85 0-45-20.15-45-45z" fill="#e18f4e"/><path d="m200.501 61.5c-4.04 5.38-8.67 10.29-13.8 14.64l-13.2-23.64c10.12 0 19.48 3.35 27 9z" fill="#60312c"/><path d="m128.501 97.5c0-24.85 20.15-45 45-45 5.7 0 10.67 9.56 13.2 23.64-15.69 13.32-36.01 21.36-58.2 21.36z" fill="#85453d"/><path d="m93.501 113.293c-5.907-2.811-10-8.816-10-15.793s4.093-12.982 10-15.793c0-9.665 7.835-17.5 17.5-17.5s17.5 7.835 17.5 17.5v31.586c0 9.665-7.835 17.5-17.5 17.5s-17.5-7.835-17.5-17.5z" fill="#85453d"/><path d="m235.873 497.385-24.872-8.291v-45.406c7.795-2.775 13.71-9.732 14.805-18.329l14.629-114.565c.376-2.938.566-5.842.566-8.629 0-15.471-5.307-30.417-15-42.406v-67.259c0-15.164-12.336-27.5-27.5-27.5h-50c-12.465 0-23.013 8.339-26.375 19.729-42.52-3.268-76.125-38.886-76.125-82.229 0-4.142-3.358-7.5-7.5-7.5s-7.5 3.358-7.5 7.5c0 51.238 39.729 93.372 90 97.214v60.044c-9.693 11.989-15 26.935-15 42.406 0 2.788.19 5.691.566 8.628l14.628 114.567c1.096 8.597 7.011 15.554 14.805 18.329v45.406l-24.872 8.291c-3.93 1.31-6.053 5.557-4.744 9.487 1.048 3.143 3.974 5.13 7.114 5.13.786 0 1.586-.125 2.373-.387l30-10c3.063-1.021 5.128-3.887 5.128-7.115v-50.79c8.729-3.096 15-11.432 15-21.21v-78.036c4.95.713 10.05.713 15 0v78.036c0 9.778 6.271 18.114 15 21.21v50.79c0 3.228 2.066 6.094 5.128 7.115l30 10c.787.262 1.586.387 2.373.387 3.14 0 6.066-1.988 7.114-5.13 1.312-3.93-.812-8.177-4.741-9.487zm-24.872-242.629h-75v-14.756h75zm-62.5-74.756h50c6.893 0 12.5 5.607 12.5 12.5v32.5h-75v-32.5c0-6.893 5.607-12.5 12.5-12.5zm44.33 148.806c-1.284-.908-2.799-1.376-4.331-1.376-.841 0-1.686.141-2.5.429-8.04 2.843-16.96 2.843-25 0-2.294-.811-4.843-.458-6.83.948-1.988 1.406-3.17 3.689-3.17 6.124v87.569c0 4.136-3.364 7.5-7.5 7.5-3.758 0-6.95-2.811-7.426-6.539l-14.629-114.57c-.295-2.31-.445-4.573-.445-6.726 0-11.687 3.905-22.982 11.039-32.165h82.923c7.133 9.184 11.038 20.479 11.038 32.165 0 2.153-.15 4.417-.445 6.728l-14.629 114.569c-.475 3.728-3.667 6.538-7.425 6.538-4.136 0-7.5-3.364-7.5-7.5v-87.571c0-2.434-1.182-4.718-3.17-6.123z"/><path d="m473.501 0h-210c-4.142 0-7.5 3.358-7.5 7.5v285c0 4.142 3.358 7.5 7.5 7.5h210c4.142 0 7.5-3.358 7.5-7.5v-285c0-4.142-3.358-7.5-7.5-7.5zm-7.5 15v105h-195v-105zm-165 120h135v120h-135zm-30 150v-150h15v127.5c0 4.142 3.358 7.5 7.5 7.5h150c4.142 0 7.5-3.358 7.5-7.5v-127.5h15v150z"/><path d="m293.501 105h150c4.142 0 7.5-3.358 7.5-7.5v-60c0-4.142-3.358-7.5-7.5-7.5h-150c-4.142 0-7.5 3.358-7.5 7.5v60c0 4.142 3.358 7.5 7.5 7.5zm7.5-60h135v45h-135z"/><path d="m86.402 117.767c2.115 11.657 12.341 20.526 24.599 20.526 8.171 0 15.438-3.941 20.003-10.021 9.55 13.152 25.036 21.728 42.497 21.728 28.949 0 52.5-23.551 52.5-52.5s-23.551-52.5-52.5-52.5c-17.46 0-32.947 8.575-42.497 21.727-4.565-6.08-11.832-10.021-20.003-10.021-12.258 0-22.484 8.869-24.599 20.526-6.43 4.65-10.401 12.202-10.401 20.267 0 8.066 3.971 15.618 10.401 20.268zm124.599-20.267c0 20.678-16.822 37.5-37.5 37.5-18.229 0-33.454-13.076-36.806-30.34 25.031-2.055 47.915-13.495 64.607-32.299 6.024 6.656 9.699 15.476 9.699 25.139zm-37.5-37.5c5.583 0 10.88 1.235 15.646 3.433-13.717 14.935-32.143 24.147-52.297 26.147 3.646-16.886 18.691-29.58 36.651-29.58zm-76.777 28.479c2.612-1.244 4.277-3.879 4.277-6.772 0-5.514 4.486-10 10-10s10 4.486 10 10v31.586c0 5.514-4.486 10-10 10s-10-4.486-10-10c0-2.894-1.665-5.529-4.277-6.772-3.53-1.68-5.723-5.136-5.723-9.021s2.193-7.341 5.723-9.021z"/></g></svg>